<?xml version="1.0" encoding="UTF-8"?> <svg xmlns="http://www.w3.org/2000/svg" id="Layer_1" data-name="Layer 1" viewBox="0 0 796 169"><defs><style>.cls-1{fill:#3f80af;}.cls-2{fill:#3e80af;}.cls-3{fill:#4081b0;}.cls-4{fill:#d75e9b;}.cls-5{fill:#a0a0a0;}</style></defs><path class="cls-1" d="M285.38,148.82H258.33V20.12h27.05Z"></path><path class="cls-2" d="M195.72,68.55h28.1v80.21h-28.1Z"></path><path class="cls-3" d="M73,83.1h27v65.63H73Z"></path><path class="cls-4" d="M136.78,101.53h27.3v47.25h-27.3Z"></path><path class="cls-3" d="M10.4,111.51H37.61v37.37H10.4Z"></path><path class="cls-5" d="M318,35.66h17.66q17.06,0,25.36,4.23t13.66,13.76q5.37,9.52,5.37,22.25a44.84,44.84,0,0,1-3,16.63,34.43,34.43,0,0,1-8.3,12.58A29.21,29.21,0,0,1,357.31,112Q351.13,114,335.93,114H318ZM332.81,50V99.42h6.91q10.23,0,14.83-2.35a17.79,17.79,0,0,0,7.53-7.88A28.93,28.93,0,0,0,365,75.55q0-12.47-7-19.34Q351.76,50,337.86,50Z"></path><path class="cls-5" d="M393.21,35.66H408V114h-14.8Z"></path><path class="cls-5" d="M497,48.44,486.55,58.81q-10-10.53-23.23-10.53A26.54,26.54,0,0,0,444,55.94a25.14,25.14,0,0,0-7.8,18.63,25.78,25.78,0,0,0,8.1,19.21,27.51,27.51,0,0,0,20,7.87,24.55,24.55,0,0,0,13-3.24,22.9,22.9,0,0,0,8.55-10.17H463.14v-14h39.38l.11,3.3A38.37,38.37,0,0,1,497.31,97a37.17,37.17,0,0,1-13.79,14,39.27,39.27,0,0,1-19.85,4.85,44.1,44.1,0,0,1-21.74-5.3,38.73,38.73,0,0,1-15.11-15.09,42,42,0,0,1-5.56-21.12,39.26,39.26,0,0,1,10.27-27q12.18-13.68,31.72-13.68a48.26,48.26,0,0,1,19.1,3.78Q489.87,40.67,497,48.44Z"></path><path class="cls-5" d="M547,35.66h38.85V50.19H561.81V64.4h24.05V78.72H561.81V114H547Z"></path><path class="cls-5" d="M597.47,56.05h14.68V83.93q0,8.14,1.12,11.31a9.86,9.86,0,0,0,3.61,4.92,10.29,10.29,0,0,0,6.1,1.76,10.72,10.72,0,0,0,6.17-1.73,10.16,10.16,0,0,0,3.76-5.08c.6-1.67.9-5.23.9-10.7V56.05h14.53V80.58q0,15.17-2.39,20.75a22.63,22.63,0,0,1-8.62,10.46q-5.7,3.64-14.48,3.65-9.52,0-15.41-4.26a22.49,22.49,0,0,1-8.27-11.87q-1.71-5.27-1.7-19.16Z"></path><path class="cls-5" d="M662.93,56.05h14.52V62a35,35,0,0,1,9-5.8,21.72,21.72,0,0,1,8.21-1.62,19.85,19.85,0,0,1,14.61,6q5.06,5.12,5,15.11V114H699.91V88.59q0-10.36-.93-13.77a9.46,9.46,0,0,0-3.24-5.18,9,9,0,0,0-5.7-1.78,10.7,10.7,0,0,0-7.57,3A15.78,15.78,0,0,0,678.09,79q-.63,2.72-.64,11.75V114H662.93Z"></path><path class="cls-5" d="M771.07,33.69H785.6V114H771.07v-6.12a28.64,28.64,0,0,1-8.54,5.83,24,24,0,0,1-9.27,1.78q-11.22,0-19.4-8.7T725.67,85.1q0-13.41,7.92-22a25.24,25.24,0,0,1,19.24-8.56,24.44,24.44,0,0,1,9.78,2,26.94,26.94,0,0,1,8.46,5.91ZM755.79,68a14.66,14.66,0,0,0-11.19,4.76,17.17,17.17,0,0,0-4.45,12.21,17.35,17.35,0,0,0,4.53,12.35,14.69,14.69,0,0,0,11.17,4.84,15,15,0,0,0,11.35-4.76q4.5-4.75,4.51-12.48,0-7.56-4.51-12.24A15.18,15.18,0,0,0,755.79,68Z"></path><path class="cls-5" d="M317.82,129.85h3.1v13.32h4.52v3h-7.62Z"></path><path class="cls-5" d="M333.12,133.78a6.37,6.37,0,0,1,3.21.85,6.32,6.32,0,0,1,2.33,8.65,6.06,6.06,0,0,1-2.31,2.32,6.32,6.32,0,0,1-3.22.84,6,6,0,0,1-4.42-1.85,6.33,6.33,0,0,1,4.41-10.81Zm.05,2.84a3.1,3.1,0,0,0-2.34,1,3.46,3.46,0,0,0-.94,2.51,3.57,3.57,0,0,0,.92,2.54,3.31,3.31,0,0,0,4.71,0,3.89,3.89,0,0,0,0-5A3.13,3.13,0,0,0,333.17,136.62Z"></path><path class="cls-5" d="M342,134.09h3v1.23a7.17,7.17,0,0,1,1.86-1.21,4.6,4.6,0,0,1,1.71-.33,4.13,4.13,0,0,1,3,1.25,4.27,4.27,0,0,1,1.05,3.14v8h-3v-5.28a13.12,13.12,0,0,0-.2-2.86,1.8,1.8,0,0,0-1.86-1.45,2.22,2.22,0,0,0-1.57.62,3.25,3.25,0,0,0-.91,1.69,13.68,13.68,0,0,0-.13,2.45v4.83h-3Z"></path><path class="cls-5" d="M364.47,129.44h3v16.69h-3v-1.28a5.91,5.91,0,0,1-1.78,1.22,5.07,5.07,0,0,1-1.93.37,5.37,5.37,0,0,1-4-1.81,6.31,6.31,0,0,1-1.71-4.5,6.46,6.46,0,0,1,1.65-4.57,5.24,5.24,0,0,1,4-1.78,5,5,0,0,1,2,.41,5.64,5.64,0,0,1,1.76,1.22Zm-3.18,7.12a3.08,3.08,0,0,0-2.33,1,3.54,3.54,0,0,0-.92,2.54,3.58,3.58,0,0,0,.94,2.56,3.06,3.06,0,0,0,2.32,1,3.1,3.1,0,0,0,2.36-1,3.61,3.61,0,0,0,.94-2.6,3.5,3.5,0,0,0-.94-2.54A3.14,3.14,0,0,0,361.29,136.56Z"></path><path class="cls-5" d="M376.2,133.78a6.36,6.36,0,0,1,3.2.85,6.18,6.18,0,0,1,2.34,2.31,6.26,6.26,0,0,1,.84,3.16,6.36,6.36,0,0,1-.84,3.18,6.2,6.2,0,0,1-2.31,2.32,6.34,6.34,0,0,1-3.22.84,6,6,0,0,1-4.42-1.85,6.33,6.33,0,0,1,4.41-10.81Zm.05,2.84a3.14,3.14,0,0,0-2.35,1,3.91,3.91,0,0,0,0,5.05,3.31,3.31,0,0,0,4.71,0,3.51,3.51,0,0,0,.94-2.53,3.47,3.47,0,0,0-.93-2.52A3.09,3.09,0,0,0,376.25,136.62Z"></path><path class="cls-5" d="M385.05,134.09h3v1.23a7.38,7.38,0,0,1,1.87-1.21,4.55,4.55,0,0,1,1.7-.33,4.1,4.1,0,0,1,3,1.25,4.27,4.27,0,0,1,1.05,3.14v8h-3v-5.28a13.33,13.33,0,0,0-.19-2.86,2,2,0,0,0-.67-1.08,1.94,1.94,0,0,0-1.19-.37,2.22,2.22,0,0,0-1.57.62,3.25,3.25,0,0,0-.91,1.69,13.34,13.34,0,0,0-.14,2.45v4.83h-3Z"></path><path class="cls-5" d="M400.11,143.06l2.15,1.09-2.73,4.67L398,148.1Z"></path><path class="cls-5" d="M426.7,132.5l-2.18,2.16a6.45,6.45,0,0,0-4.83-2.19,5.54,5.54,0,0,0-4,1.59,5.26,5.26,0,0,0-1.62,3.88,5.36,5.36,0,0,0,1.68,4,5.72,5.72,0,0,0,4.16,1.64,5.11,5.11,0,0,0,2.71-.67,4.8,4.8,0,0,0,1.78-2.12h-4.72v-2.91h8.19l0,.69a8,8,0,0,1-1.1,4.05,7.82,7.82,0,0,1-2.87,2.92,8.18,8.18,0,0,1-4.13,1,9.22,9.22,0,0,1-4.52-1.1,8.1,8.1,0,0,1-3.14-3.14,8.77,8.77,0,0,1-1.16-4.4,8.16,8.16,0,0,1,2.14-5.62,8.44,8.44,0,0,1,6.59-2.84,10.16,10.16,0,0,1,4,.78A9.24,9.24,0,0,1,426.7,132.5Z"></path><path class="cls-5" d="M442.44,141h-9.71a3.2,3.2,0,0,0,1.13,2,3.49,3.49,0,0,0,2.33.76,4,4,0,0,0,2.91-1.18l2.54,1.19a5.94,5.94,0,0,1-2.28,2,7.11,7.11,0,0,1-3.15.65,6.25,6.25,0,0,1-4.62-1.79,6.11,6.11,0,0,1-1.78-4.48,6.26,6.26,0,0,1,1.78-4.57,5.93,5.93,0,0,1,4.45-1.82,6.17,6.17,0,0,1,4.63,1.82,6.55,6.55,0,0,1,1.78,4.81Zm-3-2.38a3,3,0,0,0-1.18-1.64,3.44,3.44,0,0,0-2.05-.63A3.6,3.6,0,0,0,434,137a4,4,0,0,0-1.11,1.56Z"></path><path class="cls-5" d="M444.89,134.09h3v1.23a7.17,7.17,0,0,1,1.86-1.21,4.64,4.64,0,0,1,1.71-.33,4.13,4.13,0,0,1,3,1.25,4.27,4.27,0,0,1,1.05,3.14v8h-3v-5.28a14.05,14.05,0,0,0-.19-2.86,2,2,0,0,0-.68-1.08,1.91,1.91,0,0,0-1.18-.37,2.23,2.23,0,0,0-1.58.62,3.25,3.25,0,0,0-.91,1.69,13.68,13.68,0,0,0-.13,2.45v4.83h-3Z"></path><path class="cls-5" d="M470.55,141h-9.7a3.19,3.19,0,0,0,1.12,2,3.51,3.51,0,0,0,2.33.76,4,4,0,0,0,2.91-1.18l2.55,1.19a6.08,6.08,0,0,1-2.28,2,7.18,7.18,0,0,1-3.16.65,6.22,6.22,0,0,1-4.61-1.79,6.07,6.07,0,0,1-1.78-4.48,6.29,6.29,0,0,1,1.77-4.57,6,6,0,0,1,4.46-1.82,6.16,6.16,0,0,1,4.62,1.82,6.55,6.55,0,0,1,1.78,4.81Zm-3-2.38a3,3,0,0,0-1.18-1.64,3.43,3.43,0,0,0-2-.63,3.61,3.61,0,0,0-2.22.71A4,4,0,0,0,461,138.6Z"></path><path class="cls-5" d="M471.71,134.09h3.08l3,7.1,3-7.1h3.06l-5.13,12h-1.95Z"></path><path class="cls-5" d="M494.58,134.09h3v12h-3v-1.28a5.87,5.87,0,0,1-1.77,1.22,5.14,5.14,0,0,1-1.93.37,5.39,5.39,0,0,1-4-1.81,6.35,6.35,0,0,1-1.7-4.5,6.46,6.46,0,0,1,1.65-4.57,5.24,5.24,0,0,1,4-1.78,5,5,0,0,1,2,.41,5.53,5.53,0,0,1,1.76,1.22Zm-3.17,2.47a3.06,3.06,0,0,0-2.33,1,3.55,3.55,0,0,0-.93,2.54,3.62,3.62,0,0,0,.94,2.56,3.08,3.08,0,0,0,2.33,1,3.12,3.12,0,0,0,2.36-1,3.65,3.65,0,0,0,.94-2.6,3.54,3.54,0,0,0-.94-2.54A3.17,3.17,0,0,0,491.41,136.56Z"></path><path class="cls-5" d="M502.11,143.06l2.16,1.09-2.74,4.67-1.5-.72Z"></path><path class="cls-5" d="M513.67,129.85h3.1v13.32h4.52v3h-7.62Z"></path><path class="cls-5" d="M532.2,134.09h3v12h-3v-1.28a5.87,5.87,0,0,1-1.77,1.22,5.1,5.1,0,0,1-1.93.37,5.39,5.39,0,0,1-4-1.81,6.35,6.35,0,0,1-1.7-4.5,6.46,6.46,0,0,1,1.65-4.57,5.24,5.24,0,0,1,4-1.78,5,5,0,0,1,2,.41,5.6,5.6,0,0,1,1.75,1.22ZM529,136.56a3.06,3.06,0,0,0-2.33,1,3.55,3.55,0,0,0-.93,2.54,3.59,3.59,0,0,0,1,2.56,3,3,0,0,0,2.32,1,3.12,3.12,0,0,0,2.36-1,3.65,3.65,0,0,0,.94-2.6,3.54,3.54,0,0,0-.94-2.54A3.17,3.17,0,0,0,529,136.56Z"></path><path class="cls-5" d="M538.64,129.65h3v4.44h1.79v2.6h-1.79v9.44h-3v-9.44h-1.55v-2.6h1.55Z"></path><path class="cls-5" d="M554,134.09h3v12h-3v-1.28a5.87,5.87,0,0,1-1.77,1.22,5.14,5.14,0,0,1-1.93.37,5.39,5.39,0,0,1-4-1.81,6.35,6.35,0,0,1-1.7-4.5,6.46,6.46,0,0,1,1.65-4.57,5.24,5.24,0,0,1,4-1.78,5,5,0,0,1,2,.41,5.53,5.53,0,0,1,1.76,1.22Zm-3.17,2.47a3.06,3.06,0,0,0-2.33,1,3.55,3.55,0,0,0-.93,2.54,3.59,3.59,0,0,0,1,2.56,3,3,0,0,0,2.32,1,3.12,3.12,0,0,0,2.36-1,3.65,3.65,0,0,0,.94-2.6,3.54,3.54,0,0,0-.94-2.54A3.17,3.17,0,0,0,550.79,136.56Z"></path><path class="cls-5" d="M560,134.09h3v1.38a5.15,5.15,0,0,1,1.72-1.27,5,5,0,0,1,2.07-.42,3.79,3.79,0,0,1,2,.55,4,4,0,0,1,1.47,1.62,4.93,4.93,0,0,1,1.76-1.62,4.81,4.81,0,0,1,2.29-.55,4.21,4.21,0,0,1,2.26.59,3.44,3.44,0,0,1,1.4,1.56,8.27,8.27,0,0,1,.43,3.14v7.06h-3.05V140a5.19,5.19,0,0,0-.51-2.77,1.71,1.71,0,0,0-1.52-.73A2.35,2.35,0,0,0,572,137a2.59,2.59,0,0,0-.91,1.23,7.53,7.53,0,0,0-.3,2.5v5.44h-3v-5.84a8.22,8.22,0,0,0-.24-2.34,2.08,2.08,0,0,0-.71-1.08,1.92,1.92,0,0,0-1.16-.35,2.27,2.27,0,0,0-1.37.45,2.73,2.73,0,0,0-.92,1.26,7.81,7.81,0,0,0-.3,2.54v5.36h-3Z"></path><path class="cls-5" d="M582.79,143.06l2.16,1.09-2.73,4.67-1.51-.72Z"></path><path class="cls-5" d="M595.94,129.85h3l3.77,11.35,3.81-11.35h3l2.73,16.28h-3l-1.74-10.28-3.46,10.28h-2.73l-3.43-10.28-1.79,10.28h-3Z"></path><path class="cls-5" d="M623.32,134.09h3v12h-3v-1.28a5.91,5.91,0,0,1-1.78,1.22,5.1,5.1,0,0,1-1.93.37,5.37,5.37,0,0,1-4-1.81,6.31,6.31,0,0,1-1.71-4.5,6.46,6.46,0,0,1,1.65-4.57,5.24,5.24,0,0,1,4-1.78,5,5,0,0,1,2,.41,5.64,5.64,0,0,1,1.76,1.22Zm-3.18,2.47a3.06,3.06,0,0,0-2.33,1,3.55,3.55,0,0,0-.93,2.54,3.59,3.59,0,0,0,1,2.56,3.06,3.06,0,0,0,2.32,1,3.1,3.1,0,0,0,2.36-1,3.61,3.61,0,0,0,.94-2.6,3.5,3.5,0,0,0-.94-2.54A3.15,3.15,0,0,0,620.14,136.56Z"></path><path class="cls-5" d="M638.28,129.44h3v16.69h-3v-1.28a5.87,5.87,0,0,1-1.77,1.22,5.14,5.14,0,0,1-1.93.37,5.39,5.39,0,0,1-4-1.81,6.35,6.35,0,0,1-1.7-4.5,6.46,6.46,0,0,1,1.65-4.57,5.22,5.22,0,0,1,4-1.78,5,5,0,0,1,2,.41,5.53,5.53,0,0,1,1.76,1.22Zm-3.18,7.12a3,3,0,0,0-2.32,1,3.94,3.94,0,0,0,0,5.1,3.06,3.06,0,0,0,2.32,1,3.1,3.1,0,0,0,2.36-1,3.61,3.61,0,0,0,.94-2.6,3.5,3.5,0,0,0-.94-2.54A3.14,3.14,0,0,0,635.1,136.56Z"></path><path class="cls-5" d="M643.65,134.09h2.59v1.51a3.18,3.18,0,0,1,1.12-1.36,2.66,2.66,0,0,1,1.52-.46,2.8,2.8,0,0,1,1.23.31l-.94,2.6a2.06,2.06,0,0,0-.87-.27,1.38,1.38,0,0,0-1.18.86,8,8,0,0,0-.48,3.39v5.46h-3Z"></path><path class="cls-5" d="M652.78,129.13a1.87,1.87,0,0,1,1.37.57,1.92,1.92,0,0,1,.57,1.4,1.88,1.88,0,0,1-.57,1.38,1.81,1.81,0,0,1-1.34.57,1.86,1.86,0,0,1-1.38-.59,1.92,1.92,0,0,1-.57-1.41,1.93,1.93,0,0,1,1.92-1.92Zm-1.51,5h3v12h-3Z"></path><path class="cls-5" d="M665.93,129.44h3v16.69h-3v-1.28a5.79,5.79,0,0,1-1.78,1.22,5.07,5.07,0,0,1-1.93.37,5.37,5.37,0,0,1-4-1.81,6.3,6.3,0,0,1-1.7-4.5,6.5,6.5,0,0,1,1.64-4.57,5.26,5.26,0,0,1,4-1.78,5,5,0,0,1,2,.41,5.64,5.64,0,0,1,1.76,1.22Zm-3.18,7.12a3.08,3.08,0,0,0-2.33,1,4,4,0,0,0,0,5.1,3.06,3.06,0,0,0,2.32,1,3.1,3.1,0,0,0,2.36-1,3.61,3.61,0,0,0,.94-2.6,3.5,3.5,0,0,0-.94-2.54A3.14,3.14,0,0,0,662.75,136.56Z"></path><path class="cls-5" d="M673.45,143.06l2.16,1.09-2.73,4.67-1.51-.72Z"></path><path class="cls-5" d="M686.6,129.85h3l3.77,11.35,3.81-11.35h3L703,146.13h-3l-1.74-10.28-3.46,10.28H692l-3.43-10.28-1.79,10.28h-3Z"></path><path class="cls-5" d="M705.08,134.09h3v5.8a8.29,8.29,0,0,0,.23,2.35,2.08,2.08,0,0,0,.75,1,2.41,2.41,0,0,0,2.55,0,2.1,2.1,0,0,0,.79-1.06,8.49,8.49,0,0,0,.18-2.22v-5.9h3v5.1a12.5,12.5,0,0,1-.5,4.31,4.8,4.8,0,0,1-1.79,2.18,5.56,5.56,0,0,1-3,.76,5.34,5.34,0,0,1-3.2-.89,4.63,4.63,0,0,1-1.72-2.47,14.78,14.78,0,0,1-.35-4Zm2.85-5.37a1.57,1.57,0,1,1-1.12.46A1.54,1.54,0,0,1,707.93,128.72Zm4.9,0a1.52,1.52,0,0,1,1.13.46,1.58,1.58,0,0,1,0,2.25,1.59,1.59,0,0,1-2.24,0,1.58,1.58,0,0,1,0-2.25A1.51,1.51,0,0,1,712.83,128.72Z"></path><path class="cls-5" d="M718.69,134.09h3v1.23a7.52,7.52,0,0,1,1.86-1.21,4.64,4.64,0,0,1,1.71-.33,4.11,4.11,0,0,1,3,1.25,4.27,4.27,0,0,1,1,3.14v8h-3v-5.28a13.33,13.33,0,0,0-.19-2.86,2,2,0,0,0-.68-1.08,1.91,1.91,0,0,0-1.18-.37,2.25,2.25,0,0,0-1.58.62,3.33,3.33,0,0,0-.91,1.69,13.68,13.68,0,0,0-.13,2.45v4.83h-3Z"></path><path class="cls-5" d="M744.08,136.52l-2.52,1.38a4.44,4.44,0,0,0-1.4-1,4.23,4.23,0,0,0-1.62-.28,3.74,3.74,0,0,0-2.74,1,3.44,3.44,0,0,0-1,2.59,3.35,3.35,0,0,0,1,2.51,3.64,3.64,0,0,0,2.65,1,3.84,3.84,0,0,0,3.15-1.38l2.39,1.63a6.5,6.5,0,0,1-5.47,2.52,6.58,6.58,0,0,1-5-1.88,6.26,6.26,0,0,1,1.52-9.94,7.27,7.27,0,0,1,3.5-.84,7,7,0,0,1,3.22.71A6.12,6.12,0,0,1,744.08,136.52Z"></path><path class="cls-5" d="M746.81,129.44h3v5.86a6.83,6.83,0,0,1,1.78-1.14,4.54,4.54,0,0,1,1.82-.38,4.07,4.07,0,0,1,3,1.24,4.31,4.31,0,0,1,1.05,3.15v8h-3v-5.28a13.28,13.28,0,0,0-.2-2.84,2,2,0,0,0-.68-1.1,1.9,1.9,0,0,0-1.19-.37,2.26,2.26,0,0,0-1.58.61,3.24,3.24,0,0,0-.91,1.66,13.36,13.36,0,0,0-.14,2.48v4.84h-3Z"></path><path class="cls-5" d="M772.47,141h-9.71a3.2,3.2,0,0,0,1.13,2,3.48,3.48,0,0,0,2.33.76,4,4,0,0,0,2.91-1.18l2.54,1.19a5.94,5.94,0,0,1-2.28,2,7.11,7.11,0,0,1-3.15.65,6.25,6.25,0,0,1-4.62-1.79,6.07,6.07,0,0,1-1.78-4.48,6.26,6.26,0,0,1,1.78-4.57,5.93,5.93,0,0,1,4.45-1.82,6.17,6.17,0,0,1,4.63,1.82,6.55,6.55,0,0,1,1.78,4.81Zm-3-2.38a3.08,3.08,0,0,0-1.18-1.64,3.44,3.44,0,0,0-2-.63A3.66,3.66,0,0,0,764,137a4,4,0,0,0-1.11,1.56Z"></path><path class="cls-5" d="M774.91,134.09h3v1.23a7.17,7.17,0,0,1,1.86-1.21,4.56,4.56,0,0,1,1.71-.33,4.13,4.13,0,0,1,3,1.25,4.27,4.27,0,0,1,1.05,3.14v8h-3v-5.28a13.12,13.12,0,0,0-.2-2.86,1.8,1.8,0,0,0-1.86-1.45,2.22,2.22,0,0,0-1.57.62,3.25,3.25,0,0,0-.91,1.69,13.68,13.68,0,0,0-.13,2.45v4.83h-3Z"></path></svg> 